HIERARCHY
ROOT torus_large
{
	OFFSET 0.000000 0.000000 0.000000
	CHANNELS 6 Xposition Yposition Zposition Yrotation Xrotation Zrotation
	End Site
	{
		OFFSET 0.000000 0.000000 0.000000
	}
}
MOTION
Frames: 85
Frame Time: 0.008333334
-3.279753 -0.005508 4.151615 -0.207062 -0.184509 0.280038 
-3.279289 -0.005453 4.151581 -0.282715 -0.149414 0.267390 
-3.279724 -0.005455 4.152189 -0.243988 -0.201660 0.218912 
-3.279521 -0.005874 4.152707 -0.189087 -0.111847 0.164147 
-3.279488 -0.006049 4.153366 -0.124847 -0.114502 0.167456 
-3.279593 -0.005956 4.153544 -0.069458 -0.026154 0.208224 
-3.279605 -0.006392 4.153881 -0.281738 -0.284119 0.154779 
-3.279911 -0.006377 4.153892 -0.077911 -0.161835 0.196111 
-3.280239 -0.006090 4.153847 -0.079041 -0.164948 0.289000 
-3.280288 -0.006326 4.153871 -0.041870 -0.131622 0.237888 
-3.280570 -0.006732 4.154457 0.053636 -0.048401 0.277836 
-3.280857 -0.006411 4.154463 0.013654 -0.113190 0.337798 
-3.280910 -0.006441 4.154601 -0.052246 -0.052795 0.235334 
-3.281283 -0.006677 4.154872 0.093633 0.004975 0.260703 
-3.281496 -0.006309 4.154520 -0.110016 -0.097443 0.226522 
-3.281400 -0.006495 4.154771 -0.018921 -0.062592 0.268828 
-3.281210 -0.006532 4.154859 -0.071411 -0.107788 0.301238 
-3.281001 -0.006725 4.155190 0.040789 -0.037964 0.327090 
-3.280871 -0.006304 4.154624 -0.065338 -0.118958 0.301240 
-3.280597 -0.006286 4.154464 -0.055084 -0.125397 0.300835 
-3.279942 -0.006514 4.154230 -0.126038 -0.142487 0.224317 
-3.279614 -0.006731 4.154249 0.002048 -0.064484 0.193660 
-3.279345 -0.006762 4.154287 -0.257965 -0.070557 0.002172 
-3.279400 -0.006729 4.154495 -0.238037 -0.042786 0.023695 
-3.279442 -0.006807 4.154581 -0.232025 -0.045502 0.021646 
-3.279517 -0.006850 4.154664 -0.238861 -0.045349 0.032407 
-3.279602 -0.006728 4.154823 -0.252472 -0.142365 0.161302 
-3.280022 -0.006565 4.154868 -0.101379 -0.069916 0.190587 
-3.280235 -0.006499 4.154757 -0.079620 -0.071930 0.214944 
-3.280530 -0.006281 4.154283 -0.023773 -0.161438 0.316117 
-3.280397 -0.006479 4.154126 -0.080475 -0.155579 0.261139 
-3.280517 -0.006251 4.154053 -0.039001 -0.186401 0.296226 
-3.280148 -0.006777 4.154270 -0.102203 -0.120941 0.165429 
-3.280477 -0.006335 4.154301 -0.048096 -0.179443 0.291962 
-3.279918 -0.006939 4.155122 -0.315277 -0.084778 0.072436 
-3.280082 -0.006785 4.155105 -0.343933 -0.149933 0.156903 
-3.279979 -0.006983 4.155429 -0.313385 -0.074280 0.102439 
-3.280080 -0.007024 4.155546 -0.323151 -0.077484 0.088710 
-3.280168 -0.007096 4.155652 -0.313049 -0.081299 0.088880 
-3.281007 -0.006843 4.155326 -0.238190 -0.116882 0.168143 
-3.281918 -0.006726 4.154748 -0.430603 -0.156158 0.155542 
-3.282904 -0.006369 4.154303 -0.213196 -0.017426 0.233066 
-3.284422 -0.006643 4.154217 -0.167053 -0.013428 0.120803 
-3.284713 -0.007131 4.154473 -0.023071 -0.129395 0.250704 
-3.285199 -0.006663 4.154290 -0.326416 -0.109924 0.056664 
-3.285715 -0.006936 4.154706 -0.313385 -0.258209 0.251916 
-3.285348 -0.007336 4.155249 -0.119995 -0.248962 0.393085 
-3.285331 -0.007501 4.155631 -0.132965 -0.216858 0.405004 
-3.284935 -0.007875 4.156120 -0.167450 -0.171356 0.269671 
-3.284854 -0.007172 4.155601 -0.033630 -0.050354 0.253194 
-3.284773 -0.006919 4.155527 -0.148834 -0.036316 0.230721 
-3.284715 -0.006757 4.155180 -0.155182 -0.121613 0.259183 
-3.284714 -0.006985 4.155166 -0.136108 -0.061859 0.218848 
-3.284329 -0.007570 4.155751 -0.215332 -0.301331 0.413967 
-3.284930 -0.007215 4.155340 -0.129181 -0.240356 0.388403 
-3.285084 -0.007465 4.155569 -0.115021 -0.141113 0.323716 
-3.285250 -0.007713 4.155578 -0.012238 -0.156250 0.366309 
-3.285544 -0.007630 4.155636 -0.155518 -0.161499 0.287454 
-3.285855 -0.007431 4.155521 -0.047607 -0.157715 0.345356 
-3.286105 -0.007135 4.155305 -0.062561 -0.235413 0.374574 
-3.286581 -0.006382 4.154445 -0.335449 -0.098236 0.085865 
-3.286410 -0.006805 4.154918 -0.308167 -0.314301 0.301892 
-3.286155 -0.007092 4.154907 -0.306854 -0.304688 0.333506 
-3.285759 -0.007580 4.155540 -0.019623 -0.162537 0.355852 
-3.285654 -0.007721 4.155602 -0.090179 -0.133514 0.363998 
-3.285792 -0.007816 4.155725 0.102534 -0.162109 0.410388 
-3.285709 -0.007696 4.155698 0.027473 -0.122315 0.330047 
-3.285900 -0.007392 4.155598 -0.010101 -0.217835 0.401715 
-3.285753 -0.007639 4.155653 -0.008575 -0.170166 0.455186 
-3.285702 -0.007629 4.155629 -0.061432 -0.231476 0.398281 
-3.286217 -0.006871 4.154835 -0.189056 -0.114075 0.231685 
-3.286083 -0.007696 4.155713 0.006732 -0.175018 0.458328 
-3.286167 -0.007324 4.155438 -0.063690 -0.231293 0.375818 
-3.286493 -0.007120 4.155151 -0.270111 -0.237518 0.226447 
-3.286699 -0.007008 4.154886 -0.203369 -0.280518 0.335438 
-3.286416 -0.007539 4.155521 0.108123 -0.130341 0.361446 
-3.286221 -0.007776 4.155561 0.095097 -0.185059 0.458569 
-3.286326 -0.007710 4.155822 0.019183 -0.184357 0.457100 
-3.286187 -0.007698 4.155699 0.028849 -0.214447 0.417013 
-3.286404 -0.007436 4.155429 -0.293274 -0.314392 0.346386 
-3.285810 -0.007901 4.155883 0.014560 -0.115570 0.408272 
-3.285939 -0.007514 4.155800 -0.043610 -0.209198 0.415193 
-3.285882 -0.007518 4.155732 -0.003774 -0.165436 0.433840 
-3.286045 -0.007170 4.155238 -0.064819 0.001539 0.243510 
-3.285718 -0.007676 4.155727 0.035465 -0.121368 0.357455 
